<svg width="44" height="44" viewBox="0 0 44 44" fill="none" xmlns="http://www.w3.org/2000/svg">
<g clip-path="url(#clip0_388_114)">
<rect width="44" height="44" rx="22" fill="black"/>
<path d="M22.3347 11C17.1796 11 13 15.1076 13 20.1738V31.1267C13 32.0871 14.0906 32.6594 14.9026 32.1244L18.8592 29.3481H30.4474C31.1226 29.3481 31.6694 28.8102 31.6694 28.1472V20.1744C31.67 15.1076 27.4904 11 22.3347 11ZM20.1071 20.3912C19.9486 20.9552 19.4946 21.4019 18.9201 21.5578C17.5661 21.9251 16.3597 20.7396 16.7335 19.4089C16.8921 18.8449 17.3466 18.3981 17.9206 18.2423C19.2746 17.875 20.4809 19.0605 20.1071 20.3912ZM27.8925 20.3912C27.7339 20.9552 27.28 21.4019 26.7054 21.5578C25.3514 21.9251 24.1451 20.7396 24.5189 19.4089C24.6774 18.8449 25.132 18.3981 25.7059 18.2423C27.0599 17.875 28.2662 19.0605 27.8925 20.3906V20.3912Z" fill="white"/>
</g>
<defs>
<clipPath id="clip0_388_114">
<rect width="44" height="44" rx="22" fill="white"/>
</clipPath>
</defs>
</svg>
